# xmcd CD database file
#
# Track frame offsets:
#	150
#	50006
#	95640
#	145756
#	201983
#	253100
#	304477
#
# Disc length: 4438 seconds
#
# Revision: 3
# Processed by: cddbd v1.5.1PL0 Copyright (c) Steve Scherf et al.
# Submitted via: CDex 1.51
#
DISCID=6b115407
DTITLE=Sat Hari Singh and Friends - Mantras for Man's Transformation
DYEAR=1997
DGENRE=New Age
TTITLE0=Ik ong kar sat naam siri wahe guru
TTITLE1=Ich bin du
TTITLE2=Ik ong kar sat guru prasad
TTITLE3=Aad Gureh Nameh
TTITLE4=Jio
TTITLE5=Wahe guru, wahe jio
TTITLE6=Ang sang wahe guru
EXTD=YEAR: 1997
EXTT0=
EXTT1=
EXTT2=
EXTT3=
EXTT4=
EXTT5=
EXTT6=
PLAYORDER=
